<svg width="246" height="114" viewBox="0 0 246 114" fill="none" xmlns="http://www.w3.org/2000/svg">
<g filter="url(#filter0_d_86_2)">
<rect x="4" width="238" height="70" rx="15" fill="white"/>
</g>
<path d="M36.6051 48H30.9801L41.2216 18.9091H47.7273L57.983 48H52.358L44.5881 24.875H44.3608L36.6051 48ZM36.7898 36.5938H52.1307V40.8267H36.7898V36.5938ZM61.8146 48V18.9091H66.9567V29.7898H67.1697C67.4349 29.2595 67.8089 28.696 68.2919 28.0994C68.7749 27.4934 69.4283 26.9773 70.2521 26.5511C71.076 26.1155 72.1271 25.8977 73.4055 25.8977C75.0911 25.8977 76.611 26.3286 77.9652 27.1903C79.3288 28.0426 80.4084 29.3068 81.2038 30.983C82.0088 32.6496 82.4112 34.6951 82.4112 37.1193C82.4112 39.5152 82.0182 41.5511 81.2322 43.2273C80.4463 44.9034 79.3762 46.1818 78.022 47.0625C76.6679 47.9432 75.1338 48.3835 73.4197 48.3835C72.1697 48.3835 71.1328 48.1752 70.3089 47.7585C69.4851 47.3419 68.8222 46.84 68.3203 46.2528C67.8279 45.6562 67.4444 45.0928 67.1697 44.5625H66.8714V48H61.8146ZM66.8572 37.0909C66.8572 38.5019 67.0561 39.7377 67.4538 40.7983C67.861 41.8589 68.4434 42.6875 69.201 43.2841C69.968 43.8712 70.8961 44.1648 71.9851 44.1648C73.1214 44.1648 74.0732 43.8617 74.8402 43.2557C75.6072 42.6402 76.1849 41.8021 76.5732 40.7415C76.9709 39.6714 77.1697 38.4545 77.1697 37.0909C77.1697 35.7367 76.9756 34.5341 76.5874 33.483C76.1991 32.4318 75.6214 31.608 74.8544 31.0114C74.0874 30.4148 73.1309 30.1165 71.9851 30.1165C70.8866 30.1165 69.9538 30.4053 69.1868 30.983C68.4197 31.5606 67.8374 32.3703 67.4396 33.4119C67.0514 34.4536 66.8572 35.6799 66.8572 37.0909ZM96.2997 48.4261C94.169 48.4261 92.3224 47.9574 90.7599 47.0199C89.1974 46.0824 87.9853 44.7708 87.1236 43.0852C86.2713 41.3996 85.8452 39.4299 85.8452 37.1761C85.8452 34.9223 86.2713 32.9479 87.1236 31.2528C87.9853 29.5578 89.1974 28.2415 90.7599 27.304C92.3224 26.3665 94.169 25.8977 96.2997 25.8977C98.4304 25.8977 100.277 26.3665 101.839 27.304C103.402 28.2415 104.609 29.5578 105.462 31.2528C106.323 32.9479 106.754 34.9223 106.754 37.1761C106.754 39.4299 106.323 41.3996 105.462 43.0852C104.609 44.7708 103.402 46.0824 101.839 47.0199C100.277 47.9574 98.4304 48.4261 96.2997 48.4261ZM96.3281 44.3068C97.4834 44.3068 98.4493 43.9896 99.2259 43.3551C100.002 42.7112 100.58 41.8494 100.959 40.7699C101.347 39.6903 101.541 38.4877 101.541 37.1619C101.541 35.8267 101.347 34.6193 100.959 33.5398C100.58 32.4508 100.002 31.5843 99.2259 30.9403C98.4493 30.2964 97.4834 29.9744 96.3281 29.9744C95.1444 29.9744 94.1596 30.2964 93.3736 30.9403C92.5971 31.5843 92.0147 32.4508 91.6264 33.5398C91.2476 34.6193 91.0582 35.8267 91.0582 37.1619C91.0582 38.4877 91.2476 39.6903 91.6264 40.7699C92.0147 41.8494 92.5971 42.7112 93.3736 43.3551C94.1596 43.9896 95.1444 44.3068 96.3281 44.3068ZM125.025 38.8239V26.1818H130.167V48H125.181V44.1222H124.954C124.461 45.3437 123.652 46.3428 122.525 47.1193C121.407 47.8958 120.03 48.2841 118.391 48.2841C116.961 48.2841 115.697 47.9669 114.599 47.3324C113.51 46.6884 112.657 45.7557 112.042 44.5341C111.426 43.303 111.119 41.8163 111.119 40.0739V26.1818H116.261V39.2784C116.261 40.661 116.639 41.7595 117.397 42.5739C118.155 43.3883 119.149 43.7955 120.38 43.7955C121.138 43.7955 121.871 43.6108 122.582 43.2415C123.292 42.8722 123.874 42.3229 124.329 41.5938C124.793 40.8551 125.025 39.9318 125.025 38.8239ZM146.349 26.1818V30.1591H133.807V26.1818H146.349ZM136.903 20.9545H142.045V41.4375C142.045 42.1288 142.15 42.6591 142.358 43.0284C142.576 43.3883 142.86 43.6345 143.21 43.767C143.561 43.8996 143.949 43.9659 144.375 43.9659C144.697 43.9659 144.991 43.9422 145.256 43.8949C145.53 43.8475 145.739 43.8049 145.881 43.767L146.747 47.7869C146.473 47.8816 146.08 47.9858 145.568 48.0994C145.066 48.2131 144.451 48.2794 143.722 48.2983C142.434 48.3362 141.274 48.142 140.241 47.7159C139.209 47.2803 138.39 46.608 137.784 45.6989C137.188 44.7898 136.894 43.6534 136.903 42.2898V20.9545ZM160.572 48V26.1818H165.487V29.8892H165.742C166.197 28.6392 166.95 27.6638 168.001 26.9631C169.052 26.2528 170.307 25.8977 171.765 25.8977C173.242 25.8977 174.487 26.2576 175.501 26.9773C176.523 27.6875 177.243 28.6581 177.66 29.8892H177.887C178.37 28.6771 179.184 27.7112 180.33 26.9915C181.486 26.2623 182.854 25.8977 184.435 25.8977C186.443 25.8977 188.081 26.5322 189.35 27.8011C190.619 29.0701 191.254 30.9214 191.254 33.3551V48H186.097V34.1506C186.097 32.7964 185.737 31.8068 185.018 31.1818C184.298 30.5473 183.417 30.2301 182.376 30.2301C181.135 30.2301 180.165 30.6184 179.464 31.3949C178.772 32.1619 178.427 33.161 178.427 34.392V48H173.384V33.9375C173.384 32.8106 173.043 31.911 172.362 31.2386C171.689 30.5663 170.808 30.2301 169.719 30.2301C168.981 30.2301 168.308 30.4195 167.702 30.7983C167.096 31.1676 166.613 31.6932 166.254 32.375C165.894 33.0473 165.714 33.8333 165.714 34.733V48H160.572ZM206.129 48.4261C203.942 48.4261 202.053 47.9716 200.462 47.0625C198.88 46.1439 197.663 44.8466 196.811 43.1705C195.959 41.4848 195.533 39.5009 195.533 37.2188C195.533 34.9744 195.959 33.0047 196.811 31.3097C197.673 29.6051 198.875 28.2794 200.419 27.3324C201.963 26.3759 203.776 25.8977 205.859 25.8977C207.204 25.8977 208.473 26.1155 209.666 26.5511C210.869 26.9773 211.929 27.6402 212.848 28.5398C213.776 29.4394 214.505 30.5852 215.036 31.9773C215.566 33.3598 215.831 35.0076 215.831 36.9205V38.4972H197.947V35.0312H210.902C210.893 34.0464 210.679 33.1705 210.263 32.4034C209.846 31.6269 209.264 31.0161 208.516 30.571C207.777 30.1259 206.915 29.9034 205.93 29.9034C204.879 29.9034 203.956 30.1591 203.161 30.6705C202.365 31.1723 201.745 31.8352 201.3 32.6591C200.864 33.4735 200.642 34.3684 200.632 35.3438V38.3693C200.632 39.6383 200.864 40.7273 201.328 41.6364C201.792 42.536 202.441 43.2273 203.274 43.7102C204.107 44.1837 205.083 44.4205 206.2 44.4205C206.948 44.4205 207.625 44.3163 208.232 44.108C208.838 43.8902 209.363 43.5729 209.808 43.1562C210.253 42.7396 210.589 42.2235 210.817 41.608L215.618 42.1477C215.315 43.4167 214.737 44.5246 213.885 45.4716C213.042 46.4091 211.963 47.1383 210.646 47.6591C209.33 48.1705 207.824 48.4261 206.129 48.4261Z" fill="black"/>
<defs>
<filter id="filter0_d_86_2" x="0" y="0" width="246" height="78" filterUnits="userSpaceOnUse" color-interpolation-filters="sRGB">
<feFlood flood-opacity="0" result="BackgroundImageFix"/>
<feColorMatrix in="SourceAlpha" type="matrix" values="0 0 0 0 0 0 0 0 0 0 0 0 0 0 0 0 0 0 127 0" result="hardAlpha"/>
<feOffset dy="4"/>
<feGaussianBlur stdDeviation="2"/>
<feComposite in2="hardAlpha" operator="out"/>
<feColorMatrix type="matrix" values="0 0 0 0 0 0 0 0 0 0 0 0 0 0 0 0 0 0 0.25 0"/>
<feBlend mode="normal" in2="BackgroundImageFix" result="effect1_dropShadow_86_2"/>
<feBlend mode="normal" in="SourceGraphic" in2="effect1_dropShadow_86_2" result="shape"/>
</filter>
</defs>
</svg>
